<?xml version="1.0" encoding="UTF-8" standalone="no"?>
<svg xmlns:dc="http://purl.org/dc/elements/1.1/" xmlns:cc="http://creativecommons.org/ns#" xmlns:rdf="http://www.w3.org/1999/02/22-rdf-syntax-ns#" xmlns:svg="http://www.w3.org/2000/svg" xmlns="http://www.w3.org/2000/svg" xmlns:xlink="http://www.w3.org/1999/xlink" width="134.54683mm" height="134.54735mm" viewBox="0 0 134.54684 134.54734" version="1.1" id="svg8">
  <defs id="defs2"><linearGradient id="linearGradient2334">
  <stop style="stop-color:#600d0d;stop-opacity:1;" offset="0" id="stop2330"/>
  <stop style="stop-color:#951b1c;stop-opacity:1" offset="1" id="stop2332"/>
</linearGradient>
<linearGradient id="linearGradient8007">
  <stop style="stop-color:#000000;stop-opacity:0" offset="0" id="stop8003"/>
  <stop style="stop-color:#000000;stop-opacity:0.28627452" offset="0.47821143" id="stop8011"/>
  <stop style="stop-color:#000000;stop-opacity:0" offset="1" id="stop8005"/>
</linearGradient>
<linearGradient id="linearGradient2870">
  <stop id="stop2872" offset="0" style="stop-color:#ffee00;stop-opacity:1;"/>
  <stop id="stop2874" offset="1" style="stop-color:#ff3300;stop-opacity:1;"/>
</linearGradient>
<linearGradient gradientUnits="userSpaceOnUse" y2="409.42679" x2="380.4288" y1="409.77631" x1="212.2251" id="linearGradient2876" xlink:href="#linearGradient2870" gradientTransform="matrix(0.76020117,0,0,-0.94532376,37.745498,763.20497)"/>
<clipPath id="g">
  <path d="M 0,56.693 V 0 H 56.693 0.001 L 0,0.001 Z" id="path1521"/>
</clipPath>
<linearGradient id="b" x2="1" gradientTransform="matrix(39.47719,-44.75383,44.75383,39.47719,15.16066,43.29451)" gradientUnits="userSpaceOnUse">
  <stop stop-color="#293bab" offset="0" id="stop1524"/>
  <stop stop-color="#293bab" offset=".00072338" id="stop1526"/>
  <stop stop-color="#293bab" offset=".01526787" id="stop1528"/>
  <stop stop-color="#1e58be" offset="1" id="stop1530"/>
</linearGradient>
<clipPath id="f">
  <path d="M 0,56.693 V 0.001 L 0.001,0 h 56.692 v 56.693 z" id="path1533"/>
</clipPath>
<clipPath id="e">
  <path d="M 0,0 H 56.693 V 56.693 H 0 Z" id="path1536"/>
</clipPath>
<clipPath id="d">
  <path d="m 39.892,28.291 c 0,-3.012 2.406,-5.42 5.568,-5.42 2.321,0 3.771,0.91 4.753,2.07 l -1.283,0.98 C 48.026,24.79 46.887,24.35 45.46,24.35 c -1.924,0 -3.497,1.37 -3.841,3.184 h 9.356 c 0.033,0.246 0.053,0.498 0.053,0.757 0,3.008 -2.408,5.418 -5.568,5.418 -3.162,0 -5.568,-2.41 -5.568,-5.418 m 5.568,3.911 c 1.937,0 3.515,-1.363 3.847,-3.194 h -7.695 c 0.331,1.831 1.911,3.194 3.848,3.194 M 16.615,28.291 c 0,-3.012 2.407,-5.42 5.568,-5.42 3.161,0 5.568,2.408 5.568,5.42 0,3.008 -2.407,5.418 -5.568,5.418 -3.161,0 -5.568,-2.41 -5.568,-5.418 m 1.655,0 c 0,2.18 1.732,3.911 3.913,3.911 2.183,0 3.913,-1.731 3.913,-3.911 0,-2.185 -1.73,-3.916 -3.913,-3.916 -2.181,0 -3.913,1.731 -3.913,3.916 m -12.595,0 c 0,-3.012 2.408,-5.42 5.569,-5.42 2.86,0 4.364,2.108 4.364,2.108 l -1.053,1.053 c 0,0 -1.129,-1.657 -3.311,-1.657 -2.183,0 -3.914,1.731 -3.914,3.916 0,2.18 1.731,3.911 3.914,3.911 2.182,0 3.235,-1.58 3.235,-1.58 l 1.054,1.053 c 0,0 -1.429,2.034 -4.289,2.034 -3.161,0 -5.569,-2.41 -5.569,-5.418 m 23.832,5.265 V 23.021 h 1.656 v 4.064 h 3.347 l 2.259,-4.064 h 1.806 l -2.409,4.214 c 0,0 2.107,0.753 2.107,3.086 0,1.805 -1.431,3.235 -3.385,3.235 z m 1.656,-1.504 h 3.725 c 0.977,0 1.729,-0.753 1.729,-1.731 0,-0.978 -0.752,-1.731 -1.729,-1.731 h -3.725 z" id="path1539"/>
</clipPath>
<linearGradient id="a" x2="1" gradientTransform="matrix(0,33.82036,33.82036,0,28.35147,0.3072529)" gradientUnits="userSpaceOnUse">
  <stop stop-color="#1e58be" offset="0" id="stop1542"/>
  <stop stop-color="#1e58be" offset=".00078938" id="stop1544"/>
  <stop stop-color="#fff" offset="1" id="stop1546"/>
</linearGradient>
<clipPath id="c">
  <path d="M 0,0 H 56.693 V 56.693 H 0 Z" id="path1549"/>
</clipPath>
<filter style="color-interpolation-filters:sRGB" id="filter1976" x="-0.012511232" width="1.0250225" y="-0.054198302" height="1.1083966">
  <feGaussianBlur stdDeviation="0.17245982" id="feGaussianBlur1978"/>
</filter>
<clipPath id="g-0">
  <path d="M 0,56.693 V 0 H 56.693 0.001 L 0,0.001 Z" id="path1521-0"/>
</clipPath>
<linearGradient id="b-6" x2="1" gradientTransform="matrix(39.47719,-44.75383,44.75383,39.47719,15.16066,43.29451)" gradientUnits="userSpaceOnUse">
  <stop stop-color="#293bab" offset="0" id="stop1524-1"/>
  <stop stop-color="#293bab" offset=".00072338" id="stop1526-7"/>
  <stop stop-color="#293bab" offset=".01526787" id="stop1528-4"/>
  <stop stop-color="#1e58be" offset="1" id="stop1530-4"/>
</linearGradient>
<clipPath id="f-1">
  <path d="M 0,56.693 V 0.001 L 0.001,0 h 56.692 v 56.693 z" id="path1533-8"/>
</clipPath>
<clipPath id="e-9">
  <path d="M 0,0 H 56.693 V 56.693 H 0 Z" id="path1536-2"/>
</clipPath>
<clipPath id="d-4">
  <path d="m 39.892,28.291 c 0,-3.012 2.406,-5.42 5.568,-5.42 2.321,0 3.771,0.91 4.753,2.07 l -1.283,0.98 C 48.026,24.79 46.887,24.35 45.46,24.35 c -1.924,0 -3.497,1.37 -3.841,3.184 h 9.356 c 0.033,0.246 0.053,0.498 0.053,0.757 0,3.008 -2.408,5.418 -5.568,5.418 -3.162,0 -5.568,-2.41 -5.568,-5.418 m 5.568,3.911 c 1.937,0 3.515,-1.363 3.847,-3.194 h -7.695 c 0.331,1.831 1.911,3.194 3.848,3.194 M 16.615,28.291 c 0,-3.012 2.407,-5.42 5.568,-5.42 3.161,0 5.568,2.408 5.568,5.42 0,3.008 -2.407,5.418 -5.568,5.418 -3.161,0 -5.568,-2.41 -5.568,-5.418 m 1.655,0 c 0,2.18 1.732,3.911 3.913,3.911 2.183,0 3.913,-1.731 3.913,-3.911 0,-2.185 -1.73,-3.916 -3.913,-3.916 -2.181,0 -3.913,1.731 -3.913,3.916 m -12.595,0 c 0,-3.012 2.408,-5.42 5.569,-5.42 2.86,0 4.364,2.108 4.364,2.108 l -1.053,1.053 c 0,0 -1.129,-1.657 -3.311,-1.657 -2.183,0 -3.914,1.731 -3.914,3.916 0,2.18 1.731,3.911 3.914,3.911 2.182,0 3.235,-1.58 3.235,-1.58 l 1.054,1.053 c 0,0 -1.429,2.034 -4.289,2.034 -3.161,0 -5.569,-2.41 -5.569,-5.418 m 23.832,5.265 V 23.021 h 1.656 v 4.064 h 3.347 l 2.259,-4.064 h 1.806 l -2.409,4.214 c 0,0 2.107,0.753 2.107,3.086 0,1.805 -1.431,3.235 -3.385,3.235 z m 1.656,-1.504 h 3.725 c 0.977,0 1.729,-0.753 1.729,-1.731 0,-0.978 -0.752,-1.731 -1.729,-1.731 h -3.725 z" id="path1539-9"/>
</clipPath>
<linearGradient id="a-8" x2="1" gradientTransform="matrix(0,33.82036,33.82036,0,28.35147,0.3072529)" gradientUnits="userSpaceOnUse">
  <stop stop-color="#1e58be" offset="0" id="stop1542-7"/>
  <stop stop-color="#1e58be" offset=".00078938" id="stop1544-9"/>
  <stop stop-color="#fff" offset="1" id="stop1546-9"/>
</linearGradient>
<clipPath id="c-3">
  <path d="M 0,0 H 56.693 V 56.693 H 0 Z" id="path1549-2"/>
</clipPath>
<filter style="color-interpolation-filters:sRGB" id="filter1976-9" x="-0.012511232" width="1.0250225" y="-0.054198302" height="1.1083966">
  <feGaussianBlur stdDeviation="0.17245982" id="feGaussianBlur1978-3"/>
</filter>
<linearGradient id="path20_1_" gradientUnits="userSpaceOnUse" x1="318.60681" y1="137.85229" x2="318.60681" y2="23.755699" gradientTransform="matrix(0.63115808,0,0,-0.67032162,298.18793,2298.0418)">
  <stop offset="0" style="stop-color:#F51E00" id="stop1279"/>
  <stop offset="1" style="stop-color:#A70100" id="stop1281"/>
</linearGradient>
<linearGradient id="path20-6_1_" gradientUnits="userSpaceOnUse" x1="318.6051" y1="137.85291" x2="318.6051" y2="23.749001" gradientTransform="matrix(0.63115808,0,0,-0.67032162,253.80765,2078.6626)">
  <stop offset="0" style="stop-color:#F51E00" id="stop1285"/>
  <stop offset="1" style="stop-color:#A70100" id="stop1287"/>
</linearGradient>
<clipPath id="g-3">
  <path d="M 0,56.693 V 0 H 56.693 0.001 L 0,0.001 Z" id="path1521-6"/>
</clipPath>
<linearGradient id="b-7" x2="1" gradientTransform="matrix(39.47719,-44.75383,44.75383,39.47719,15.16066,43.29451)" gradientUnits="userSpaceOnUse">
  <stop stop-color="#293bab" offset="0" id="stop1524-11"/>
  <stop stop-color="#293bab" offset=".00072338" id="stop1526-74"/>
  <stop stop-color="#293bab" offset=".01526787" id="stop1528-3"/>
  <stop stop-color="#1e58be" offset="1" id="stop1530-5"/>
</linearGradient>
<clipPath id="f-7">
  <path d="M 0,56.693 V 0.001 L 0.001,0 h 56.692 v 56.693 z" id="path1533-3"/>
</clipPath>
<clipPath id="e-8">
  <path d="M 0,0 H 56.693 V 56.693 H 0 Z" id="path1536-4"/>
</clipPath>
<clipPath id="d-2">
  <path d="m 39.892,28.291 c 0,-3.012 2.406,-5.42 5.568,-5.42 2.321,0 3.771,0.91 4.753,2.07 l -1.283,0.98 C 48.026,24.79 46.887,24.35 45.46,24.35 c -1.924,0 -3.497,1.37 -3.841,3.184 h 9.356 c 0.033,0.246 0.053,0.498 0.053,0.757 0,3.008 -2.408,5.418 -5.568,5.418 -3.162,0 -5.568,-2.41 -5.568,-5.418 m 5.568,3.911 c 1.937,0 3.515,-1.363 3.847,-3.194 h -7.695 c 0.331,1.831 1.911,3.194 3.848,3.194 M 16.615,28.291 c 0,-3.012 2.407,-5.42 5.568,-5.42 3.161,0 5.568,2.408 5.568,5.42 0,3.008 -2.407,5.418 -5.568,5.418 -3.161,0 -5.568,-2.41 -5.568,-5.418 m 1.655,0 c 0,2.18 1.732,3.911 3.913,3.911 2.183,0 3.913,-1.731 3.913,-3.911 0,-2.185 -1.73,-3.916 -3.913,-3.916 -2.181,0 -3.913,1.731 -3.913,3.916 m -12.595,0 c 0,-3.012 2.408,-5.42 5.569,-5.42 2.86,0 4.364,2.108 4.364,2.108 l -1.053,1.053 c 0,0 -1.129,-1.657 -3.311,-1.657 -2.183,0 -3.914,1.731 -3.914,3.916 0,2.18 1.731,3.911 3.914,3.911 2.182,0 3.235,-1.58 3.235,-1.58 l 1.054,1.053 c 0,0 -1.429,2.034 -4.289,2.034 -3.161,0 -5.569,-2.41 -5.569,-5.418 m 23.832,5.265 V 23.021 h 1.656 v 4.064 h 3.347 l 2.259,-4.064 h 1.806 l -2.409,4.214 c 0,0 2.107,0.753 2.107,3.086 0,1.805 -1.431,3.235 -3.385,3.235 z m 1.656,-1.504 h 3.725 c 0.977,0 1.729,-0.753 1.729,-1.731 0,-0.978 -0.752,-1.731 -1.729,-1.731 h -3.725 z" id="path1539-7"/>
</clipPath>
<linearGradient id="a-9" x2="1" gradientTransform="matrix(0,33.82036,33.82036,0,28.35147,0.3072529)" gradientUnits="userSpaceOnUse">
  <stop stop-color="#1e58be" offset="0" id="stop1542-9"/>
  <stop stop-color="#1e58be" offset=".00078938" id="stop1544-3"/>
  <stop stop-color="#fff" offset="1" id="stop1546-2"/>
</linearGradient>
<clipPath id="c-4">
  <path d="M 0,0 H 56.693 V 56.693 H 0 Z" id="path1549-6"/>
</clipPath>
<filter style="color-interpolation-filters:sRGB" id="filter1976-8" x="-0.012511232" width="1.0250225" y="-0.054198302" height="1.1083966">
  <feGaussianBlur stdDeviation="0.17245982" id="feGaussianBlur1978-4"/>
</filter>
<clipPath id="g-0-6">
  <path d="M 0,56.693 V 0 H 56.693 0.001 L 0,0.001 Z" id="path1521-0-0"/>
</clipPath>
<linearGradient id="b-6-0" x2="1" gradientTransform="matrix(39.47719,-44.75383,44.75383,39.47719,15.16066,43.29451)" gradientUnits="userSpaceOnUse">
  <stop stop-color="#293bab" offset="0" id="stop1524-1-7"/>
  <stop stop-color="#293bab" offset=".00072338" id="stop1526-7-0"/>
  <stop stop-color="#293bab" offset=".01526787" id="stop1528-4-0"/>
  <stop stop-color="#1e58be" offset="1" id="stop1530-4-3"/>
</linearGradient>
<clipPath id="f-1-0">
  <path d="M 0,56.693 V 0.001 L 0.001,0 h 56.692 v 56.693 z" id="path1533-8-0"/>
</clipPath>
<clipPath id="e-9-5">
  <path d="M 0,0 H 56.693 V 56.693 H 0 Z" id="path1536-2-4"/>
</clipPath>
<clipPath id="d-4-6">
  <path d="m 39.892,28.291 c 0,-3.012 2.406,-5.42 5.568,-5.42 2.321,0 3.771,0.91 4.753,2.07 l -1.283,0.98 C 48.026,24.79 46.887,24.35 45.46,24.35 c -1.924,0 -3.497,1.37 -3.841,3.184 h 9.356 c 0.033,0.246 0.053,0.498 0.053,0.757 0,3.008 -2.408,5.418 -5.568,5.418 -3.162,0 -5.568,-2.41 -5.568,-5.418 m 5.568,3.911 c 1.937,0 3.515,-1.363 3.847,-3.194 h -7.695 c 0.331,1.831 1.911,3.194 3.848,3.194 M 16.615,28.291 c 0,-3.012 2.407,-5.42 5.568,-5.42 3.161,0 5.568,2.408 5.568,5.42 0,3.008 -2.407,5.418 -5.568,5.418 -3.161,0 -5.568,-2.41 -5.568,-5.418 m 1.655,0 c 0,2.18 1.732,3.911 3.913,3.911 2.183,0 3.913,-1.731 3.913,-3.911 0,-2.185 -1.73,-3.916 -3.913,-3.916 -2.181,0 -3.913,1.731 -3.913,3.916 m -12.595,0 c 0,-3.012 2.408,-5.42 5.569,-5.42 2.86,0 4.364,2.108 4.364,2.108 l -1.053,1.053 c 0,0 -1.129,-1.657 -3.311,-1.657 -2.183,0 -3.914,1.731 -3.914,3.916 0,2.18 1.731,3.911 3.914,3.911 2.182,0 3.235,-1.58 3.235,-1.58 l 1.054,1.053 c 0,0 -1.429,2.034 -4.289,2.034 -3.161,0 -5.569,-2.41 -5.569,-5.418 m 23.832,5.265 V 23.021 h 1.656 v 4.064 h 3.347 l 2.259,-4.064 h 1.806 l -2.409,4.214 c 0,0 2.107,0.753 2.107,3.086 0,1.805 -1.431,3.235 -3.385,3.235 z m 1.656,-1.504 h 3.725 c 0.977,0 1.729,-0.753 1.729,-1.731 0,-0.978 -0.752,-1.731 -1.729,-1.731 h -3.725 z" id="path1539-9-2"/>
</clipPath>
<linearGradient id="a-8-0" x2="1" gradientTransform="matrix(0,33.82036,33.82036,0,28.35147,0.3072529)" gradientUnits="userSpaceOnUse">
  <stop stop-color="#1e58be" offset="0" id="stop1542-7-0"/>
  <stop stop-color="#1e58be" offset=".00078938" id="stop1544-9-1"/>
  <stop stop-color="#fff" offset="1" id="stop1546-9-2"/>
</linearGradient>
<clipPath id="c-3-4">
  <path d="M 0,0 H 56.693 V 56.693 H 0 Z" id="path1549-2-0"/>
</clipPath>
<filter style="color-interpolation-filters:sRGB" id="filter1976-9-7" x="-0.012511232" width="1.0250225" y="-0.054198302" height="1.1083966">
  <feGaussianBlur stdDeviation="0.17245982" id="feGaussianBlur1978-3-8"/>
</filter>
<clipPath id="g-8">
  <path d="M 0,56.693 V 0 H 56.693 0.001 L 0,0.001 Z" id="path1521-4"/>
</clipPath>
<linearGradient id="b-8" x2="1" gradientTransform="matrix(39.47719,-44.75383,44.75383,39.47719,15.16066,43.29451)" gradientUnits="userSpaceOnUse">
  <stop stop-color="#293bab" offset="0" id="stop1524-6"/>
  <stop stop-color="#293bab" offset=".00072338" id="stop1526-5"/>
  <stop stop-color="#293bab" offset=".01526787" id="stop1528-8"/>
  <stop stop-color="#1e58be" offset="1" id="stop1530-1"/>
</linearGradient>
<clipPath id="f-78">
  <path d="M 0,56.693 V 0.001 L 0.001,0 h 56.692 v 56.693 z" id="path1533-4"/>
</clipPath>
<clipPath id="e-7">
  <path d="M 0,0 H 56.693 V 56.693 H 0 Z" id="path1536-8"/>
</clipPath>
<clipPath id="d-7">
  <path d="m 39.892,28.291 c 0,-3.012 2.406,-5.42 5.568,-5.42 2.321,0 3.771,0.91 4.753,2.07 l -1.283,0.98 C 48.026,24.79 46.887,24.35 45.46,24.35 c -1.924,0 -3.497,1.37 -3.841,3.184 h 9.356 c 0.033,0.246 0.053,0.498 0.053,0.757 0,3.008 -2.408,5.418 -5.568,5.418 -3.162,0 -5.568,-2.41 -5.568,-5.418 m 5.568,3.911 c 1.937,0 3.515,-1.363 3.847,-3.194 h -7.695 c 0.331,1.831 1.911,3.194 3.848,3.194 M 16.615,28.291 c 0,-3.012 2.407,-5.42 5.568,-5.42 3.161,0 5.568,2.408 5.568,5.42 0,3.008 -2.407,5.418 -5.568,5.418 -3.161,0 -5.568,-2.41 -5.568,-5.418 m 1.655,0 c 0,2.18 1.732,3.911 3.913,3.911 2.183,0 3.913,-1.731 3.913,-3.911 0,-2.185 -1.73,-3.916 -3.913,-3.916 -2.181,0 -3.913,1.731 -3.913,3.916 m -12.595,0 c 0,-3.012 2.408,-5.42 5.569,-5.42 2.86,0 4.364,2.108 4.364,2.108 l -1.053,1.053 c 0,0 -1.129,-1.657 -3.311,-1.657 -2.183,0 -3.914,1.731 -3.914,3.916 0,2.18 1.731,3.911 3.914,3.911 2.182,0 3.235,-1.58 3.235,-1.58 l 1.054,1.053 c 0,0 -1.429,2.034 -4.289,2.034 -3.161,0 -5.569,-2.41 -5.569,-5.418 m 23.832,5.265 V 23.021 h 1.656 v 4.064 h 3.347 l 2.259,-4.064 h 1.806 l -2.409,4.214 c 0,0 2.107,0.753 2.107,3.086 0,1.805 -1.431,3.235 -3.385,3.235 z m 1.656,-1.504 h 3.725 c 0.977,0 1.729,-0.753 1.729,-1.731 0,-0.978 -0.752,-1.731 -1.729,-1.731 h -3.725 z" id="path1539-5"/>
</clipPath>
<linearGradient id="a-4" x2="1" gradientTransform="matrix(0,33.82036,33.82036,0,28.35147,0.3072529)" gradientUnits="userSpaceOnUse">
  <stop stop-color="#1e58be" offset="0" id="stop1542-71"/>
  <stop stop-color="#1e58be" offset=".00078938" id="stop1544-1"/>
  <stop stop-color="#fff" offset="1" id="stop1546-1"/>
</linearGradient>
<clipPath id="c-0">
  <path d="M 0,0 H 56.693 V 56.693 H 0 Z" id="path1549-21"/>
</clipPath>
<filter style="color-interpolation-filters:sRGB" id="filter1976-2" x="-0.012511232" width="1.0250225" y="-0.054198302" height="1.1083966">
  <feGaussianBlur stdDeviation="0.17245982" id="feGaussianBlur1978-6"/>
</filter>
<clipPath id="g-0-4">
  <path d="M 0,56.693 V 0 H 56.693 0.001 L 0,0.001 Z" id="path1521-0-03"/>
</clipPath>
<linearGradient id="b-6-3" x2="1" gradientTransform="matrix(39.47719,-44.75383,44.75383,39.47719,15.16066,43.29451)" gradientUnits="userSpaceOnUse">
  <stop stop-color="#293bab" offset="0" id="stop1524-1-4"/>
  <stop stop-color="#293bab" offset=".00072338" id="stop1526-7-7"/>
  <stop stop-color="#293bab" offset=".01526787" id="stop1528-4-08"/>
  <stop stop-color="#1e58be" offset="1" id="stop1530-4-1"/>
</linearGradient>
<clipPath id="f-1-5">
  <path d="M 0,56.693 V 0.001 L 0.001,0 h 56.692 v 56.693 z" id="path1533-8-3"/>
</clipPath>
<clipPath id="e-9-2">
  <path d="M 0,0 H 56.693 V 56.693 H 0 Z" id="path1536-2-1"/>
</clipPath>
<clipPath id="d-4-7">
  <path d="m 39.892,28.291 c 0,-3.012 2.406,-5.42 5.568,-5.42 2.321,0 3.771,0.91 4.753,2.07 l -1.283,0.98 C 48.026,24.79 46.887,24.35 45.46,24.35 c -1.924,0 -3.497,1.37 -3.841,3.184 h 9.356 c 0.033,0.246 0.053,0.498 0.053,0.757 0,3.008 -2.408,5.418 -5.568,5.418 -3.162,0 -5.568,-2.41 -5.568,-5.418 m 5.568,3.911 c 1.937,0 3.515,-1.363 3.847,-3.194 h -7.695 c 0.331,1.831 1.911,3.194 3.848,3.194 M 16.615,28.291 c 0,-3.012 2.407,-5.42 5.568,-5.42 3.161,0 5.568,2.408 5.568,5.42 0,3.008 -2.407,5.418 -5.568,5.418 -3.161,0 -5.568,-2.41 -5.568,-5.418 m 1.655,0 c 0,2.18 1.732,3.911 3.913,3.911 2.183,0 3.913,-1.731 3.913,-3.911 0,-2.185 -1.73,-3.916 -3.913,-3.916 -2.181,0 -3.913,1.731 -3.913,3.916 m -12.595,0 c 0,-3.012 2.408,-5.42 5.569,-5.42 2.86,0 4.364,2.108 4.364,2.108 l -1.053,1.053 c 0,0 -1.129,-1.657 -3.311,-1.657 -2.183,0 -3.914,1.731 -3.914,3.916 0,2.18 1.731,3.911 3.914,3.911 2.182,0 3.235,-1.58 3.235,-1.58 l 1.054,1.053 c 0,0 -1.429,2.034 -4.289,2.034 -3.161,0 -5.569,-2.41 -5.569,-5.418 m 23.832,5.265 V 23.021 h 1.656 v 4.064 h 3.347 l 2.259,-4.064 h 1.806 l -2.409,4.214 c 0,0 2.107,0.753 2.107,3.086 0,1.805 -1.431,3.235 -3.385,3.235 z m 1.656,-1.504 h 3.725 c 0.977,0 1.729,-0.753 1.729,-1.731 0,-0.978 -0.752,-1.731 -1.729,-1.731 h -3.725 z" id="path1539-9-3"/>
</clipPath>
<linearGradient id="a-8-02" x2="1" gradientTransform="matrix(0,33.82036,33.82036,0,28.35147,0.3072529)" gradientUnits="userSpaceOnUse">
  <stop stop-color="#1e58be" offset="0" id="stop1542-7-3"/>
  <stop stop-color="#1e58be" offset=".00078938" id="stop1544-9-5"/>
  <stop stop-color="#fff" offset="1" id="stop1546-9-28"/>
</linearGradient>
<clipPath id="c-3-5">
  <path d="M 0,0 H 56.693 V 56.693 H 0 Z" id="path1549-2-7"/>
</clipPath>
<filter style="color-interpolation-filters:sRGB" id="filter1976-9-3" x="-0.012511232" width="1.0250225" y="-0.054198302" height="1.1083966">
  <feGaussianBlur stdDeviation="0.17245982" id="feGaussianBlur1978-3-0"/>
</filter>
<linearGradient xlink:href="#linearGradient8007" id="linearGradient8009" x1="322.03256" y1="2528.8" x2="960.0564" y2="2528.8" gradientUnits="userSpaceOnUse" gradientTransform="translate(-417.62125,-2319.3012)"/>

	

	
	
	
	
	
	
	

		
		
		
		
		
		
		
		
		
		
		
	
			
		
			
		
			
		
			
		
			
		
			
		
			
		
	<linearGradient id="SVGID_1_" gradientUnits="userSpaceOnUse" x1="430.3364" y1="12.3413" x2="430.3364" y2="137.3418" gradientTransform="matrix(0.15277205,0,0,0.15277205,-247.88055,217.62989)">
		<stop offset="0" style="stop-color:#EFFFFF" id="stop1846"/>

		<stop offset="0.25" style="stop-color:#EFFFFF" id="stop1848"/>

		<stop offset="0.4" style="stop-color:#E0FFFF" id="stop1850"/>

		<stop offset="0.5" style="stop-color:#BBFFFF" id="stop1852"/>

		<stop offset="0.75" style="stop-color:#BBFFFF" id="stop1854"/>

		<stop offset="0.9" style="stop-color:#87DDFF" id="stop1856"/>

	</linearGradient>

	
	

		
		
		
		
		
		
		
		
		
		
		
	
			
			
		
	
	
	
	
	
	
	
	
	
<linearGradient xlink:href="#linearGradient2334" id="linearGradient2336" x1="161.6244" y1="109.09647" x2="161.6244" y2="292.9642" gradientUnits="userSpaceOnUse"/>
</defs>
  <metadata id="metadata5">
    <rdf:RDF>
      <cc:Work rdf:about="">
        <dc:format>image/svg+xml</dc:format>
        <dc:type rdf:resource="http://purl.org/dc/dcmitype/StillImage"/>
        <dc:title/>
      </cc:Work>
    </rdf:RDF>
  </metadata>
  <g id="layer1" transform="translate(158.64241,-195.24782)">
    <g id="g2455">
      <path id="path2443" style="color:#000000;font-style:normal;font-variant:normal;font-weight:normal;font-stretch:normal;font-size:medium;line-height:normal;font-family:sans-serif;font-variant-ligatures:normal;font-variant-position:normal;font-variant-caps:normal;font-variant-numeric:normal;font-variant-alternates:normal;font-variant-east-asian:normal;font-feature-settings:normal;font-variation-settings:normal;text-indent:0;text-align:start;text-decoration:none;text-decoration-line:none;text-decoration-style:solid;text-decoration-color:#000000;letter-spacing:normal;word-spacing:normal;text-transform:none;writing-mode:lr-tb;direction:ltr;text-orientation:mixed;dominant-baseline:auto;baseline-shift:baseline;text-anchor:start;white-space:normal;shape-padding:0;shape-margin:0;inline-size:0;clip-rule:nonzero;display:inline;overflow:visible;visibility:visible;isolation:auto;mix-blend-mode:normal;color-interpolation:sRGB;color-interpolation-filters:linearRGB;solid-color:#000000;solid-opacity:1;vector-effect:none;fill:#981920;fill-opacity:1;fill-rule:evenodd;stroke:none;stroke-width:3.77953;stroke-linecap:round;stroke-linejoin:round;stroke-miterlimit:4;stroke-dasharray:none;stroke-dashoffset:0;stroke-opacity:1;paint-order:stroke fill markers;color-rendering:auto;image-rendering:auto;shape-rendering:auto;text-rendering:auto;enable-background:accumulate;stop-color:#000000" d="M 195.21484,-70.800781 C 55.256901,-70.800932 -59.046988,43.502915 -59.046875,183.46094 -59.046988,323.419 55.256599,437.72476 195.21484,437.72461 335.17225,437.72344 449.47669,323.41843 449.47656,183.46094 449.47669,43.503558 335.17191,-70.79961 195.21484,-70.800781 Z" transform="matrix(0.26458333,0,0,0.26458333,-143.01959,213.98053)"/>
      <path id="path2414" style="color:#000000;font-style:normal;font-variant:normal;font-weight:normal;font-stretch:normal;font-size:medium;line-height:normal;font-family:sans-serif;font-variant-ligatures:normal;font-variant-position:normal;font-variant-caps:normal;font-variant-numeric:normal;font-variant-alternates:normal;font-variant-east-asian:normal;font-feature-settings:normal;font-variation-settings:normal;text-indent:0;text-align:start;text-decoration:none;text-decoration-line:none;text-decoration-style:solid;text-decoration-color:#000000;letter-spacing:normal;word-spacing:normal;text-transform:none;writing-mode:lr-tb;direction:ltr;text-orientation:mixed;dominant-baseline:auto;baseline-shift:baseline;text-anchor:start;white-space:normal;shape-padding:0;shape-margin:0;inline-size:0;clip-rule:nonzero;display:inline;overflow:visible;visibility:visible;isolation:auto;mix-blend-mode:normal;color-interpolation:sRGB;color-interpolation-filters:linearRGB;solid-color:#000000;solid-opacity:1;vector-effect:none;fill:#ed2d30;fill-opacity:1;fill-rule:evenodd;stroke:none;stroke-width:3.77953;stroke-linecap:round;stroke-linejoin:round;stroke-miterlimit:4;stroke-dasharray:none;stroke-dashoffset:0;stroke-opacity:1;paint-order:stroke fill markers;color-rendering:auto;image-rendering:auto;shape-rendering:auto;text-rendering:auto;enable-background:accumulate;stop-color:#000000" d="M 195.21484,-60.974609 C 60.601569,-60.974761 -49.22277,48.847697 -49.222656,183.46094 -49.22277,318.07422 60.601342,427.89859 195.21484,427.89844 329.82751,427.8973 439.65051,318.07365 439.65039,183.46094 439.65051,48.848301 329.82725,-60.973476 195.21484,-60.974609 Z" transform="matrix(0.26458333,0,0,0.26458333,-143.01959,213.98053)"/>
      <path id="path2323" style="color:#000000;font-style:normal;font-variant:normal;font-weight:normal;font-stretch:normal;font-size:medium;line-height:normal;font-family:sans-serif;font-variant-ligatures:normal;font-variant-position:normal;font-variant-caps:normal;font-variant-numeric:normal;font-variant-alternates:normal;font-variant-east-asian:normal;font-feature-settings:normal;font-variation-settings:normal;text-indent:0;text-align:start;text-decoration:none;text-decoration-line:none;text-decoration-style:solid;text-decoration-color:#000000;letter-spacing:normal;word-spacing:normal;text-transform:none;writing-mode:lr-tb;direction:ltr;text-orientation:mixed;dominant-baseline:auto;baseline-shift:baseline;text-anchor:start;white-space:normal;shape-padding:0;shape-margin:0;inline-size:0;clip-rule:nonzero;display:inline;overflow:visible;visibility:visible;opacity:1;isolation:auto;mix-blend-mode:normal;color-interpolation:sRGB;color-interpolation-filters:linearRGB;solid-color:#000000;solid-opacity:1;vector-effect:none;fill:url(#linearGradient2336);fill-opacity:1;fill-rule:evenodd;stroke:none;stroke-width:3.77953;stroke-linecap:round;stroke-linejoin:round;stroke-miterlimit:4;stroke-dasharray:none;stroke-dashoffset:0;stroke-opacity:1;paint-order:stroke fill markers;color-rendering:auto;image-rendering:auto;shape-rendering:auto;text-rendering:auto;enable-background:accumulate;stop-color:#000000" d="M 195.21484,-35.839844 C 74.213915,-35.839957 -24.086051,62.460043 -24.085938,183.46094 -24.086051,304.46187 74.213915,402.76379 195.21484,402.76367 316.21497,402.76265 414.51573,304.46108 414.51562,183.46094 414.51573,62.460837 316.21497,-35.838823 195.21484,-35.839844 Z" transform="matrix(0.26458333,0,0,0.26458333,-143.01959,213.98053)"/>
      <path id="path2298" style="fill:#8a181a;fill-opacity:1;fill-rule:evenodd;stroke:none;stroke-width:78.2064;stroke-linecap:round;stroke-linejoin:round;stroke-miterlimit:4;stroke-dasharray:none;stroke-opacity:1;paint-order:stroke fill markers" d="M 195.21289,-26.03125 A 209.49004,209.49004 0 0 0 -14.277344,183.45898 209.49004,209.49004 0 0 0 195.21289,392.94922 209.49004,209.49004 0 0 0 404.70117,183.45898 209.49004,209.49004 0 0 0 195.21289,-26.03125 Z" transform="matrix(0.26458333,0,0,0.26458333,-143.01959,213.98053)"/>
    </g>
    <g id="g2294">
      <g id="path2277" transform="matrix(0.26458333,0,0,0.26458333,-143.01959,213.98053)" style="opacity:1">
        <path style="color:#000000;font-style:normal;font-variant:normal;font-weight:normal;font-stretch:normal;font-size:medium;line-height:normal;font-family:sans-serif;font-variant-ligatures:normal;font-variant-position:normal;font-variant-caps:normal;font-variant-numeric:normal;font-variant-alternates:normal;font-variant-east-asian:normal;font-feature-settings:normal;font-variation-settings:normal;text-indent:0;text-align:start;text-decoration:none;text-decoration-line:none;text-decoration-style:solid;text-decoration-color:#000000;letter-spacing:normal;word-spacing:normal;text-transform:none;writing-mode:lr-tb;direction:ltr;text-orientation:mixed;dominant-baseline:auto;baseline-shift:baseline;text-anchor:start;white-space:normal;shape-padding:0;shape-margin:0;inline-size:0;clip-rule:nonzero;display:inline;overflow:visible;visibility:visible;isolation:auto;mix-blend-mode:normal;color-interpolation:sRGB;color-interpolation-filters:linearRGB;solid-color:#000000;solid-opacity:1;vector-effect:none;fill:#600d0d;fill-opacity:1;fill-rule:nonzero;stroke:none;stroke-linecap:butt;stroke-linejoin:miter;stroke-miterlimit:4;stroke-dasharray:none;stroke-dashoffset:0;stroke-opacity:1;paint-order:stroke fill markers;color-rendering:auto;image-rendering:auto;shape-rendering:auto;text-rendering:auto;enable-background:accumulate;stop-color:#000000;stop-opacity:1" d="m 331.26758,-48.140625 -5.94531,0.318359 C 213.16775,-41.810659 99.693789,-25.089462 -14.091797,-5.0273438 l -7.273437,1.2832032 0.308593,7.3789062 C -16.493647,112.77873 -9.0953834,220.68728 0.1796875,327.76562 l 0.45898438,5.30079 4.98242192,1.87109 C 52.146506,352.40431 99.132722,361.60128 145.05859,373.83008 l 14.9336,3.97656 -53.85352,-167.54492 5.95313,-0.67578 96.18554,206.76172 5.97266,-0.60938 c 71.04746,-7.24732 142.46011,-14.3584 208.76953,-26.61328 L 440.74219,385.84961 222.30273,204.4707 c 38.17123,2.52867 76.31366,4.0015 114.42188,4.73242 l 2.02344,0.0391 1.82226,-0.88281 c 24.60314,-11.93628 46.89882,-27.04514 64.18164,-47.91993 l 2.8086,-3.39257 -1.17774,-4.24415 C 387.74859,85.669883 360.28316,21.413175 333.56055,-42.644531 Z m -10.9668,17.556641 c 25.40484,60.839777 50.86622,121.304707 68.53711,183.546874 -14.49191,16.3475 -32.90564,28.91275 -53.92578,39.30078 -45.88205,-0.91104 -91.72104,-2.7992 -137.51172,-6.47265 l -26.58008,-2.13282 231.21485,191.98828 c -58.44896,9.88494 -120.8859,16.30103 -183.52735,22.6875 l -96.24414,-206.88867 -38.492186,4.375 50.771486,157.95703 C 94.66734,343.63681 55.035628,334.84411 16.548828,320.90625 7.7191725,218.24192 0.65588826,114.84523 -3.8378906,10.365234 105.15068,-8.7117073 213.51601,-24.502595 320.30078,-30.583984 Z M 91.357422,51.001953 91.119141,59.402344 c -0.68345,23.929296 0.764526,48.048796 7.453125,71.921876 l 2.085934,7.4414 7.59571,-1.42578 c 28.37639,-5.32295 57.55133,-8.73285 87.30664,-18.45703 l 3.72851,-1.21679 1.47071,-3.63672 c 4.9786,-12.29542 4.61762,-27.136979 3.5,-42.9043 l -0.39454,-5.570312 -5.27929,-1.814454 C 166.80339,52.821381 132.87163,52.018853 99.759766,51.207031 Z m 16.331748,19.581752 c 27.96894,0.777075 55.75695,4.08249 80.35547,11.500558 0.46012,10.477552 -0.33849,15.580641 -1.93917,21.939177 -23.82131,7.29488 -48.14358,10.91276 -72.9707,15.32031 -3.84502,-16.61662 -5.52114,-31.39537 -5.4456,-48.760045 z" id="path2284"/>
        <path style="color:#000000;font-style:normal;font-variant:normal;font-weight:normal;font-stretch:normal;font-size:medium;line-height:normal;font-family:sans-serif;font-variant-ligatures:normal;font-variant-position:normal;font-variant-caps:normal;font-variant-numeric:normal;font-variant-alternates:normal;font-variant-east-asian:normal;font-feature-settings:normal;font-variation-settings:normal;text-indent:0;text-align:start;text-decoration:none;text-decoration-line:none;text-decoration-style:solid;text-decoration-color:#000000;letter-spacing:normal;word-spacing:normal;text-transform:none;writing-mode:lr-tb;direction:ltr;text-orientation:mixed;dominant-baseline:auto;baseline-shift:baseline;text-anchor:start;white-space:normal;shape-padding:0;shape-margin:0;inline-size:0;clip-rule:nonzero;display:inline;overflow:visible;visibility:visible;isolation:auto;mix-blend-mode:normal;color-interpolation:sRGB;color-interpolation-filters:linearRGB;solid-color:#000000;solid-opacity:1;vector-effect:none;fill:#e2221a;fill-opacity:1;fill-rule:nonzero;stroke:none;stroke-width:16.8756;stroke-linecap:butt;stroke-linejoin:miter;stroke-miterlimit:4;stroke-dasharray:none;stroke-dashoffset:0;stroke-opacity:1;paint-order:stroke fill markers;color-rendering:auto;image-rendering:auto;shape-rendering:auto;text-rendering:auto;enable-background:accumulate;stop-color:#000000;stop-opacity:1" d="M 325.77344,-39.396484 C 214.15067,-33.413379 101.00318,-16.751506 -12.626953,3.2832031 -8.0701657,112.27873 -0.68036801,220.05996 8.5859375,327.03711 54.26663,344.18679 100.94656,353.35165 147.23047,365.67578 l -52.275392,-162.63476 22.222652,-2.5254 96.2168,206.82813 c 71.06003,-7.2486 142.27473,-14.35174 208.0918,-26.51563 L 196.72656,194.20117 c 46.71956,3.74797 93.44061,5.67032 140.16016,6.56641 23.88813,-11.58939 45.08105,-26.0404 61.36523,-45.70899 C 379.81872,88.649838 352.51415,24.704605 325.77344,-39.396484 Z M 99.552734,59.642578 c 33.094226,0.811389 66.157766,1.725886 96.291016,12.078125 1.0902,15.380485 1.02159,29.446997 -2.9043,39.142577 -28.74726,9.39474 -57.49491,12.79108 -86.24218,18.1836 -6.37516,-22.75435 -7.813588,-45.979092 -7.144536,-69.404302 z" id="path2286"/>
      </g>
      <g id="g2244">
        <path style="color:#000000;font-style:normal;font-variant:normal;font-weight:normal;font-stretch:normal;font-size:medium;line-height:normal;font-family:sans-serif;font-variant-ligatures:normal;font-variant-position:normal;font-variant-caps:normal;font-variant-numeric:normal;font-variant-alternates:normal;font-variant-east-asian:normal;font-feature-settings:normal;font-variation-settings:normal;text-indent:0;text-align:start;text-decoration:none;text-decoration-line:none;text-decoration-style:solid;text-decoration-color:#000000;letter-spacing:normal;word-spacing:normal;text-transform:none;writing-mode:lr-tb;direction:ltr;text-orientation:mixed;dominant-baseline:auto;baseline-shift:baseline;text-anchor:start;white-space:normal;shape-padding:0;shape-margin:0;inline-size:0;clip-rule:nonzero;display:inline;overflow:visible;visibility:visible;isolation:auto;mix-blend-mode:normal;color-interpolation:sRGB;color-interpolation-filters:linearRGB;solid-color:#000000;solid-opacity:1;vector-effect:none;fill:#ac152a;fill-opacity:1;fill-rule:nonzero;stroke:none;stroke-width:0.264583;stroke-linecap:butt;stroke-linejoin:miter;stroke-miterlimit:4;stroke-dasharray:none;stroke-dashoffset:0;stroke-opacity:1;paint-order:stroke fill markers;color-rendering:auto;image-rendering:auto;shape-rendering:auto;text-rendering:auto;enable-background:accumulate;stop-color:#000000" d="m -61.308299,209.82781 -1.321885,0.0858 c -25.677206,1.67402 -51.231226,4.24223 -76.362266,9.32243 l -1.67018,0.33745 0.12609,1.69912 c 1.79513,24.25599 3.64292,48.5332 6.55619,72.71908 l 0.14315,1.18752 20.79511,7.41454 -8.9886,-37.2675 12.64367,-0.8878 25.607741,47.80639 1.281575,-0.12403 c 8.8187,-0.85272 18.020477,-1.53358 25.787572,-3.10213 l 3.540871,-0.71521 -2.559534,-2.54868 c -14.038908,-13.97911 -28.421179,-27.7275 -41.640868,-41.99537 14.353688,-0.91471 29.167614,-1.66766 42.167968,-3.15846 l 0.37982,-0.0434 0.334349,-0.185 c 3.263567,-1.80264 6.101995,-4.3328 7.433135,-8.05636 l 0.19327,-0.54001 -0.132807,-0.55811 c -3.000282,-12.60761 -7.076824,-25.77783 -13.757299,-40.18876 z m -2.407089,4.04368 c 6.113761,13.42307 9.940978,25.72958 12.797152,37.60494 -0.957461,2.27035 -2.703158,3.92747 -5.139222,5.32526 -13.939358,1.57714 -30.163756,2.31992 -45.664392,3.35948 l -3.99201,0.26769 2.69131,2.96054 c 13.24944,14.5738 27.747606,28.45212 41.886333,42.45787 -6.270349,1.00633 -13.381085,1.63143 -20.451982,2.30271 l -25.573631,-47.74231 -19.69699,1.38338 8.3845,34.76273 -11.79876,-4.20697 c -2.7509,-23.11524 -4.55397,-46.36118 -6.27972,-69.6402 23.91073,-4.72371 48.276125,-7.20318 72.837412,-8.83512 z m -46.411632,9.79165 c -4.04445,-0.009 -8.11452,0.11922 -12.1636,0.24495 l -1.83297,0.0568 -0.0393,1.83348 c -0.21075,9.88007 0.46637,19.77842 2.2996,29.68553 l 0.32401,1.75183 1.7725,-0.18087 c 11.77584,-1.20149 23.543336,-2.73584 35.062464,-5.7211 l 1.027842,-0.26613 0.326597,-1.01079 c 2.290207,-7.09321 1.272537,-14.33474 0.311092,-21.27002 l -0.161232,-1.16375 -1.107424,-0.39223 c -8.136194,-2.88222 -16.921989,-3.54891 -25.819609,-3.56774 z m -0.008,3.8654 c 8.27972,0.0175 16.225433,0.65107 23.421309,2.99103 0.827283,6.09256 1.411136,11.93028 -0.04186,17.31987 -10.29125,2.58148 -20.876459,4.04078 -31.584629,5.16817 -1.43851,-8.4206 -2.03779,-16.84813 -1.95492,-25.28942 3.41569,-0.10351 6.81583,-0.19673 10.1601,-0.18965 z" id="path2236"/>
        <path style="color:#000000;font-style:normal;font-variant:normal;font-weight:normal;font-stretch:normal;font-size:medium;line-height:normal;font-family:sans-serif;font-variant-ligatures:normal;font-variant-position:normal;font-variant-caps:normal;font-variant-numeric:normal;font-variant-alternates:normal;font-variant-east-asian:normal;font-feature-settings:normal;font-variation-settings:normal;text-indent:0;text-align:start;text-decoration:none;text-decoration-line:none;text-decoration-style:solid;text-decoration-color:#000000;letter-spacing:normal;word-spacing:normal;text-transform:none;writing-mode:lr-tb;direction:ltr;text-orientation:mixed;dominant-baseline:auto;baseline-shift:baseline;text-anchor:start;white-space:normal;shape-padding:0;shape-margin:0;inline-size:0;clip-rule:nonzero;display:inline;overflow:visible;visibility:visible;isolation:auto;mix-blend-mode:normal;color-interpolation:sRGB;color-interpolation-filters:linearRGB;solid-color:#000000;solid-opacity:1;vector-effect:none;fill:#ffffff;fill-opacity:1;fill-rule:nonzero;stroke:none;stroke-width:3.86501;stroke-linecap:butt;stroke-linejoin:miter;stroke-miterlimit:4;stroke-dasharray:none;stroke-dashoffset:0;stroke-opacity:1;paint-order:stroke fill markers;color-rendering:auto;image-rendering:auto;shape-rendering:auto;text-rendering:auto;enable-background:accumulate;stop-color:#000000" d="m -62.50461,211.84216 c -25.632179,1.67108 -51.09935,4.23296 -76.10491,9.2878 1.79492,24.25325 3.64141,48.50097 6.54792,72.63071 l 16.3034,5.81308 -8.6863,-36.01485 16.17007,-1.13585 25.590692,47.77435 c 8.847312,-0.85549 18.01036,-1.54226 25.591201,-3.0732 -14.994826,-14.93096 -30.482013,-29.61567 -44.500123,-45.03498 15.619935,-1.04756 32.040278,-1.78766 46.170821,-3.40806 3.020492,-1.66838 5.412402,-3.83924 6.547922,-7.01559 -2.97924,-12.51919 -7.012887,-25.54767 -13.630693,-39.82341 z m -47.62655,13.75368 c 8.802,0.0186 17.368621,0.69008 25.178308,3.45664 0.960475,6.92828 1.881532,13.85174 -0.236159,20.41064 -11.3651,2.94534 -23.034539,4.47163 -34.774109,5.66942 -1.80682,-9.76439 -2.47584,-19.5284 -2.26756,-29.29279 4.04937,-0.12573 8.09861,-0.25237 12.09952,-0.24391 z" id="path2238"/>
      </g>
    </g>
  </g>
  <style type="text/css" id="style6179">
	.st0{fill:#E2271E;}
	.st1{fill-rule:evenodd;clip-rule:evenodd;fill:#FEFDFD;}
	.st2{fill-rule:evenodd;clip-rule:evenodd;fill:#FEFCFC;}
	.st3{fill:none;}
	.st4{fill-rule:evenodd;clip-rule:evenodd;fill:#E2281F;}
	.st5{fill-rule:evenodd;clip-rule:evenodd;fill:#E22920;}
	.st6{fill-rule:evenodd;clip-rule:evenodd;fill:#E2271F;}
	.st7{fill-rule:evenodd;clip-rule:evenodd;fill:#E2271E;}
	.st8{fill-rule:evenodd;clip-rule:evenodd;fill:#FDF9F9;}
</style>
  <style type="text/css" id="style962">
	.st0{fill:#E42419;}
</style>
  <style type="text/css" id="style1201">
	.st0{fill:#E2271E;}
	.st1{fill-rule:evenodd;clip-rule:evenodd;fill:#FEFDFD;}
	.st2{fill-rule:evenodd;clip-rule:evenodd;fill:#FEFCFC;}
	.st3{fill:none;}
	.st4{fill-rule:evenodd;clip-rule:evenodd;fill:#E2281F;}
	.st5{fill-rule:evenodd;clip-rule:evenodd;fill:#E22920;}
	.st6{fill-rule:evenodd;clip-rule:evenodd;fill:#E2271F;}
	.st7{fill-rule:evenodd;clip-rule:evenodd;fill:#E2271E;}
	.st8{fill-rule:evenodd;clip-rule:evenodd;fill:#FDF9F9;}
</style>
  <style type="text/css" id="style1276">
	.st0{fill:url(#path20_1_);stroke:#AF030A;stroke-width:1.9;}
	.st1{fill:url(#path20-6_1_);stroke:#AF030A;stroke-width:1.9;}
	.st2{fill:#FFFFFF;stroke:#AF030A;stroke-width:1.9;}
</style>
  <style type="text/css" id="style6563">
	.st0{fill:url(#path20_1_);stroke:#AF030A;stroke-width:1.9;}
	.st1{fill:url(#path20-6_1_);stroke:#AF030A;stroke-width:1.9;}
	.st2{fill:#FFFFFF;stroke:#AF030A;stroke-width:1.9;}
</style>
  <style type="text/css" id="style6179-7">
	.st0{fill:#E2271E;}
	.st1{fill-rule:evenodd;clip-rule:evenodd;fill:#FEFDFD;}
	.st2{fill-rule:evenodd;clip-rule:evenodd;fill:#FEFCFC;}
	.st3{fill:none;}
	.st4{fill-rule:evenodd;clip-rule:evenodd;fill:#E2281F;}
	.st5{fill-rule:evenodd;clip-rule:evenodd;fill:#E22920;}
	.st6{fill-rule:evenodd;clip-rule:evenodd;fill:#E2271F;}
	.st7{fill-rule:evenodd;clip-rule:evenodd;fill:#E2271E;}
	.st8{fill-rule:evenodd;clip-rule:evenodd;fill:#FDF9F9;}
</style>
  <style type="text/css" id="style6179-1">
	.st0{fill:#E2271E;}
	.st1{fill-rule:evenodd;clip-rule:evenodd;fill:#FEFDFD;}
	.st2{fill-rule:evenodd;clip-rule:evenodd;fill:#FEFCFC;}
	.st3{fill:none;}
	.st4{fill-rule:evenodd;clip-rule:evenodd;fill:#E2281F;}
	.st5{fill-rule:evenodd;clip-rule:evenodd;fill:#E22920;}
	.st6{fill-rule:evenodd;clip-rule:evenodd;fill:#E2271F;}
	.st7{fill-rule:evenodd;clip-rule:evenodd;fill:#E2271E;}
	.st8{fill-rule:evenodd;clip-rule:evenodd;fill:#FDF9F9;}
</style>
  <style type="text/css" id="style962-1">
	.st0{fill:#E42419;}
</style>
  <style type="text/css" id="style1201-5">
	.st0{fill:#E2271E;}
	.st1{fill-rule:evenodd;clip-rule:evenodd;fill:#FEFDFD;}
	.st2{fill-rule:evenodd;clip-rule:evenodd;fill:#FEFCFC;}
	.st3{fill:none;}
	.st4{fill-rule:evenodd;clip-rule:evenodd;fill:#E2281F;}
	.st5{fill-rule:evenodd;clip-rule:evenodd;fill:#E22920;}
	.st6{fill-rule:evenodd;clip-rule:evenodd;fill:#E2271F;}
	.st7{fill-rule:evenodd;clip-rule:evenodd;fill:#E2271E;}
	.st8{fill-rule:evenodd;clip-rule:evenodd;fill:#FDF9F9;}
</style>
  <style type="text/css" id="style1276-6">
	.st0{fill:url(#path20_1_);stroke:#AF030A;stroke-width:1.9;}
	.st1{fill:url(#path20-6_1_);stroke:#AF030A;stroke-width:1.9;}
	.st2{fill:#FFFFFF;stroke:#AF030A;stroke-width:1.9;}
</style>
  <style type="text/css" id="style6563-6">
	.st0{fill:url(#path20_1_);stroke:#AF030A;stroke-width:1.9;}
	.st1{fill:url(#path20-6_1_);stroke:#AF030A;stroke-width:1.9;}
	.st2{fill:#FFFFFF;stroke:#AF030A;stroke-width:1.9;}
</style>
</svg>